<svg
  width="32"
  height="32"
  viewBox="0 0 32 32"
  fill="none"
  xmlns="http://www.w3.org/2000/svg"
>
  <g clip-path="url(#clip0)">
    <path
      fill-rule="evenodd"
      clip-rule="evenodd"
      d="M2.00024 9.8747C2.00024 14.8965 2.00024 17.1041 2.00024 22.1274C2.00024 23.43 2.69768 24.7082 3.85046 25.371L14.4546 31.4937C15.5959 32.1696 17.047 32.1696 18.1868 31.4937L28.791 25.371C29.9437 24.7082 30.6412 23.4286 30.6412 22.1274C30.6412 17.1041 30.6412 14.898 30.6412 9.8747C30.6412 8.56197 29.9322 7.2867 28.791 6.63106L18.1882 0.50833C17.047 -0.16749 15.5959 -0.16749 14.4561 0.50833L3.85046 6.63106C2.70921 7.2867 2.00024 8.56197 2.00024 9.8747Z"
      fill="#6639E4"
    />
    <path
      opacity="0.55"
      fill-rule="evenodd"
      clip-rule="evenodd"
      d="M2.67731 7.71501C2.97991 7.27695 3.37618 6.90086 3.84882 6.62851L14.4544 0.507225C15.0251 0.168595 15.6735 0 16.3205 0C16.969 0 17.616 0.168595 18.1866 0.507225L28.7908 6.62995C29.2634 6.9023 29.6597 7.27695 29.9623 7.71645C29.4882 8.40236 28.7043 8.88941 28.0328 9.27415C24.7517 11.1676 21.459 13.0351 18.1851 14.9257C17.6145 15.2629 16.9661 15.4329 16.3191 15.4329C15.6706 15.4329 15.0236 15.2643 14.453 14.9257C11.182 13.0337 7.88933 11.1662 4.60822 9.27271C3.93528 8.88797 3.15139 8.40092 2.67731 7.71501Z"
      fill="white"
    />
    <path
      opacity="0.2"
      fill-rule="evenodd"
      clip-rule="evenodd"
      d="M14.4544 14.9246C11.1819 13.034 7.88929 11.1665 4.60817 9.27303C3.93524 8.88829 3.15134 8.40124 2.67726 7.71533C2.23488 8.37386 2.0072 9.0785 2 9.87392C2 14.8957 2 17.1033 2 22.1266C2.0072 22.9191 2.23488 23.6281 2.67726 24.2837C3.15134 23.5993 3.93524 23.1108 4.60673 22.726C7.88785 20.8326 11.1805 18.9651 14.4544 17.0745C15.0178 16.7416 15.6562 16.5716 16.296 16.5673C16.9516 16.563 17.6101 16.7315 18.188 17.0745C21.4619 18.9651 24.7545 20.8326 28.0356 22.726C28.7071 23.1108 29.4925 23.5978 29.9651 24.2837C30.4176 23.6122 30.6352 22.9061 30.6424 22.1266C30.6424 17.1033 30.6424 14.8972 30.6424 9.87392C30.6352 9.09435 30.4161 8.38539 29.9651 7.71677C29.491 8.40124 28.7071 8.88973 28.0356 9.27447C24.7545 11.1679 21.4619 13.0354 18.188 14.926C17.6217 15.2617 16.9776 15.4303 16.3334 15.4332C15.6821 15.4332 15.0293 15.2646 14.4544 14.9246Z"
      fill="white"
    />
    <path
      opacity="0.3"
      fill-rule="evenodd"
      clip-rule="evenodd"
      d="M8.62134 19.2932C8.62134 16.5928 8.62134 15.4055 8.62134 12.7051C8.62854 11.9961 8.99023 11.3203 9.61561 10.9615L15.3176 7.66883C15.9314 7.3057 16.711 7.3057 17.3249 7.66883L23.0268 10.9615C23.6536 11.3217 24.0139 11.9961 24.0211 12.7051C24.0211 15.4055 24.0211 16.5928 24.0211 19.2932C24.0139 20.0036 23.6493 20.6794 23.0268 21.0368L17.3249 24.3294C16.711 24.6926 15.9314 24.6926 15.3176 24.3294L9.61561 21.0382C8.99311 20.6794 8.62854 20.0051 8.62134 19.2932Z"
      fill="white"
    />
  </g>
  <defs>
    <clipPath id="clip0">
      <rect width="32" height="32" fill="white" />
    </clipPath>
  </defs>
</svg>
